<svg width="190" height="188" viewBox="0 0 190 188" fill="none" xmlns="http://www.w3.org/2000/svg">
<g clip-path="url(#clip0_301_317)">
<path d="M109.765 100.219H71.5887C67.9351 100.219 64.7668 97.7223 63.9206 94.1795L61.7691 85.1197C60.4572 79.6028 60.4572 73.857 61.7691 68.3401L63.9206 59.2803C64.7602 55.7375 67.9351 53.2405 71.5887 53.2405H109.765C113.419 53.2405 116.594 55.744 117.433 59.2934L119.585 68.3859C120.884 73.8767 120.884 79.5897 119.585 85.0805L117.433 94.1729C116.594 97.7158 113.419 100.226 109.765 100.226V100.219Z" stroke="#019571" stroke-width="2.44233" stroke-miterlimit="10"/>
<path d="M105.482 94.9506H75.8654C73.0316 94.9506 70.5718 93.0092 69.9224 90.2638L68.2497 83.2369C67.233 78.9554 67.233 74.504 68.2497 70.2225L69.9224 63.1956C70.5784 60.4502 73.0382 58.5088 75.8654 58.5088H105.482C108.315 58.5088 110.782 60.4502 111.431 63.2021L113.097 70.2551C114.101 74.5105 114.101 78.9489 113.097 83.2042L111.431 90.2573C110.782 93.0092 108.315 94.9506 105.482 94.9506Z" stroke="#019571" stroke-width="1.62822" stroke-miterlimit="10"/>
<path d="M93.1629 47.5601C93.1629 48.9328 92.0477 50.044 90.6702 50.044C90.3291 50.044 90.0012 49.9721 89.6994 49.8479C88.8073 49.4688 88.1776 48.5863 88.1776 47.5601C88.1776 46.1874 89.2927 45.0762 90.6702 45.0762C92.0477 45.0762 93.1629 46.1874 93.1629 47.5601Z" fill="#019571"/>
<path d="M88.0071 52.3057H93.34L90.6899 48.4294L88.0071 52.3057Z" fill="#019571"/>
<path d="M55.767 63.4243C55.767 44.2065 71.3984 31.2444 90.6834 31.2444C109.968 31.2444 125.6 44.2065 125.6 63.4243" stroke="#019571" stroke-width="2.44233" stroke-miterlimit="10"/>
<path d="M130.552 68.8366C130.552 66.0978 128.302 63.8557 125.554 63.8557C122.805 63.8557 120.556 66.0978 120.556 68.8366V87.4595C120.556 90.1984 122.805 92.4404 125.554 92.4404C128.302 92.4404 130.552 90.1984 130.552 87.4595V85.9103" stroke="#019571" stroke-width="2.44233" stroke-miterlimit="10"/>
<path d="M133.806 77.4979C133.806 82.1454 132.389 85.9105 130.637 85.9105C128.886 85.9105 129.142 82.1454 129.142 77.4979C129.142 72.8503 128.886 69.0852 130.637 69.0852C132.389 69.0852 133.806 72.8503 133.806 77.4979Z" stroke="#019571" stroke-width="1.62822" stroke-miterlimit="10"/>
<path d="M51.1033 68.8366C51.1033 66.0978 53.3532 63.8557 56.1016 63.8557C58.8501 63.8557 61.1 66.0978 61.1 68.8366V87.4595C61.1 90.1984 58.8501 92.4404 56.1016 92.4404C53.3532 92.4404 51.1033 90.1984 51.1033 87.4595V85.9103" stroke="#019571" stroke-width="2.44233" stroke-miterlimit="10"/>
<path d="M47.8496 77.4979C47.8496 82.1454 49.2665 85.9105 51.0179 85.9105C52.7693 85.9105 52.5134 82.1454 52.5134 77.4979C52.5134 72.8503 52.7693 69.0852 51.0179 69.0852C49.2665 69.0852 47.8496 72.8503 47.8496 77.4979Z" stroke="#019571" stroke-width="1.62822" stroke-miterlimit="10"/>
<g clip-path="url(#clip1_301_317)">
<path d="M88.0347 87.9492C84.489 87.9492 81.3319 87.4545 78.3875 86.0614C76.2732 85.0602 74.7396 83.5325 74.2121 81.2253C74.0935 80.7108 74.0403 80.1884 74.2693 79.6818C74.347 79.5077 74.4084 79.2821 74.6415 79.2821C74.9032 79.2821 74.9155 79.5473 74.9564 79.7135C75.1036 80.2992 75.1322 80.9126 75.4062 81.4706C75.9624 82.5906 76.9357 83.307 77.9949 83.9164C80.0192 85.076 82.2603 85.5865 84.5627 85.8319C90.2757 86.4374 95.6493 85.4638 100.43 82.2622C104.082 79.8164 105.975 76.3614 106.143 72.0516C106.163 71.553 106.221 71.0543 106.425 70.5992C106.63 70.1401 106.928 70.1084 107.235 70.5359C107.57 70.9989 107.558 71.5253 107.533 72.0516C107.215 78.8032 103.71 83.4217 97.3874 86.101C94.3243 87.3991 91.0936 87.9809 88.0347 87.9571V87.9492Z" fill="#019571"/>
<path d="M79.5039 71.0383C78.5469 71.0383 77.59 71.0304 76.6371 71.0422C76.2609 71.0462 75.9296 71.0185 75.8683 70.5792C75.811 70.1597 76.085 69.9974 76.4654 69.9183C79.6266 69.2653 82.7755 69.1703 85.9203 70.0212C86.4888 70.1755 86.7955 70.4723 86.6605 70.9987C86.5297 71.4973 86.5092 72.1345 85.6259 72.091C84.1414 72.0158 82.7632 72.5224 81.3769 72.9656C79.9946 73.4089 78.6205 73.8956 77.1401 73.9471C76.6862 73.9629 76.2568 73.9471 76.1546 73.4128C76.0523 72.8785 76.1014 72.3957 76.7107 72.1226C77.6186 71.7111 78.5796 71.438 79.5039 71.0422V71.0383Z" fill="#019571"/>
<path d="M95.8825 68.7945C97.2975 69.0201 98.5243 69.3209 99.5099 70.1836C99.9352 70.5556 100.287 70.9514 100.172 71.5727C100.091 72.016 99.882 72.2297 99.4117 72.0753C96.7249 71.2047 93.9359 71.1809 91.1509 71.1334C90.7501 71.1255 90.3003 71.1691 90.1981 70.6585C90.0999 70.1599 90.1572 69.7245 90.697 69.404C92.6354 68.2523 94.6843 67.3896 96.9376 67.0255C97.5755 66.9226 98.2094 66.9463 98.8147 67.1917C99.0028 67.2669 99.2318 67.3658 99.2359 67.6072C99.24 67.8843 99.0191 67.9832 98.786 68.0703C97.8945 68.4027 96.9049 68.3631 95.8866 68.7945H95.8825Z" fill="#019571"/>
</g>
</g>
<path d="M53.6458 144.902L51.3465 151.232H50.4068L53.0542 144.287H53.6601L53.6458 144.902ZM55.5729 151.232L53.2689 144.902L53.2546 144.287H53.8604L56.5174 151.232H55.5729ZM55.4537 148.661V149.415H51.5516V148.661H55.4537ZM58.435 144.287V151.232H57.5144V144.287H58.435ZM65.0083 147.984H63.2481L63.2386 147.244H64.8366C65.1006 147.244 65.3311 147.2 65.5283 147.111C65.7254 147.022 65.8781 146.894 65.9862 146.729C66.0975 146.561 66.1532 146.36 66.1532 146.128C66.1532 145.874 66.1039 145.667 66.0053 145.508C65.9099 145.346 65.762 145.228 65.5617 145.155C65.3645 145.079 65.1133 145.04 64.808 145.04H63.4533V151.232H62.5326V144.287H64.808C65.1642 144.287 65.4822 144.323 65.762 144.397C66.0419 144.466 66.2788 144.578 66.4728 144.73C66.6699 144.88 66.8194 145.071 66.9212 145.303C67.0229 145.535 67.0738 145.813 67.0738 146.138C67.0738 146.424 67.0007 146.683 66.8544 146.915C66.7081 147.144 66.5046 147.332 66.2438 147.478C65.9862 147.624 65.6841 147.718 65.3375 147.759L65.0083 147.984ZM64.9654 151.232H62.8856L63.4055 150.483H64.9654C65.258 150.483 65.506 150.432 65.7095 150.331C65.9163 150.229 66.0737 150.086 66.1818 149.901C66.2899 149.714 66.344 149.493 66.344 149.238C66.344 148.981 66.2979 148.758 66.2056 148.57C66.1134 148.383 65.9687 148.238 65.7716 148.136C65.5744 148.035 65.32 147.984 65.0083 147.984H63.6965L63.7061 147.244H65.4997L65.6952 147.511C66.0292 147.54 66.3122 147.635 66.5443 147.798C66.7765 147.957 66.953 148.16 67.0738 148.408C67.1978 148.656 67.2599 148.93 67.2599 149.229C67.2599 149.661 67.1645 150.027 66.9736 150.326C66.786 150.622 66.5205 150.847 66.177 151.003C65.8336 151.156 65.4297 151.232 64.9654 151.232ZM72.0062 144.287V151.232H71.0855V144.287H72.0062ZM76.285 144.287L73.2703 148.108H71.6389L71.4958 147.344H72.7217L75.145 144.287H76.285ZM75.3596 151.232L72.7503 147.988L73.2655 147.182L76.4854 151.232H75.3596ZM79.8913 144.902L77.5921 151.232H76.6524L79.2998 144.287H79.9056L79.8913 144.902ZM81.8185 151.232L79.5145 144.902L79.5002 144.287H80.106L82.763 151.232H81.8185ZM81.6992 148.661V149.415H77.7972V148.661H81.6992ZM85.6823 148.06L83.2018 144.287H84.2799L86.1259 147.297H87.433L87.2851 148.06H85.6823ZM86.1784 147.988L84.1606 151.232H83.0158L85.5964 147.197L86.1784 147.988ZM87.8289 144.287V151.232H86.9178V144.287H87.8289ZM91.5115 144.287L89.0214 148.06H87.4664L87.3233 147.297H88.5826L90.4286 144.287H91.5115ZM90.5479 151.232L88.5349 147.988L89.1216 147.197L91.6927 151.232H90.5479ZM98.1134 150.483V151.232H92.8567V150.483H98.1134ZM93.0045 150.483V152.94H92.0934L92.0887 150.483H93.0045ZM98.9148 150.483L98.9053 152.935H97.9942V150.483H98.9148ZM97.2118 144.287V145.04H94.1685V144.287H97.2118ZM98.0037 144.287V151.232H97.0878V144.287H98.0037ZM93.8536 144.287H94.7743L94.6312 147.082C94.6121 147.502 94.5723 147.89 94.5119 148.246C94.4515 148.599 94.3768 148.922 94.2877 149.214C94.1987 149.507 94.0969 149.769 93.9824 150.001C93.8679 150.23 93.7455 150.429 93.6151 150.598C93.4847 150.763 93.348 150.9 93.2049 151.008C93.065 151.113 92.9235 151.188 92.7803 151.232H92.3606V150.483H92.6563C92.739 150.394 92.8328 150.265 92.9378 150.097C93.0459 149.928 93.1524 149.71 93.2574 149.443C93.3655 149.173 93.4593 148.844 93.5388 148.456C93.6215 148.068 93.6771 147.61 93.7058 147.082L93.8536 144.287ZM100.742 147.116H102.636C103.144 147.116 103.574 147.201 103.923 147.373C104.273 147.542 104.539 147.779 104.72 148.084C104.901 148.389 104.992 148.747 104.992 149.157C104.992 149.462 104.941 149.742 104.839 149.997C104.738 150.248 104.587 150.467 104.386 150.655C104.186 150.839 103.939 150.983 103.647 151.084C103.354 151.183 103.017 151.232 102.636 151.232H100.041V144.287H100.961V150.483H102.636C102.976 150.483 103.251 150.421 103.461 150.297C103.674 150.17 103.83 150.005 103.928 149.801C104.027 149.598 104.076 149.38 104.076 149.148C104.076 148.915 104.027 148.702 103.928 148.508C103.83 148.314 103.674 148.16 103.461 148.046C103.251 147.928 102.976 147.869 102.636 147.869H100.742V147.116ZM106.752 144.287V151.232H105.832V144.287H106.752ZM109.409 149.639L112.829 144.287H113.75V151.232H112.829V145.875L109.409 151.232H108.493V144.287H109.409V149.639ZM111.852 142.565H112.567C112.567 142.813 112.51 143.034 112.395 143.228C112.281 143.419 112.117 143.568 111.904 143.676C111.691 143.784 111.438 143.838 111.146 143.838C110.704 143.838 110.354 143.721 110.096 143.485C109.842 143.247 109.715 142.94 109.715 142.565H110.43C110.43 142.752 110.484 142.918 110.592 143.061C110.7 143.204 110.885 143.276 111.146 143.276C111.4 143.276 111.581 143.204 111.689 143.061C111.797 142.918 111.852 142.752 111.852 142.565ZM123.31 150.483V151.232H118.053V150.483H123.31ZM118.201 150.483V152.94H117.29L117.285 150.483H118.201ZM124.111 150.483L124.101 152.935H123.19V150.483H124.111ZM122.408 144.287V145.04H119.365V144.287H122.408ZM123.2 144.287V151.232H122.284V144.287H123.2ZM119.05 144.287H119.97L119.827 147.082C119.808 147.502 119.768 147.89 119.708 148.246C119.648 148.599 119.573 148.922 119.484 149.214C119.395 149.507 119.293 149.769 119.179 150.001C119.064 150.23 118.942 150.429 118.811 150.598C118.681 150.763 118.544 150.9 118.401 151.008C118.261 151.113 118.12 151.188 117.976 151.232H117.557V150.483H117.852C117.935 150.394 118.029 150.265 118.134 150.097C118.242 149.928 118.349 149.71 118.453 149.443C118.562 149.173 118.655 148.844 118.735 148.456C118.818 148.068 118.873 147.61 118.902 147.082L119.05 144.287ZM130.427 147.54V147.979C130.427 148.5 130.361 148.968 130.231 149.381C130.101 149.795 129.913 150.146 129.668 150.436C129.423 150.725 129.129 150.946 128.786 151.099C128.445 151.251 128.064 151.328 127.641 151.328C127.231 151.328 126.854 151.251 126.51 151.099C126.17 150.946 125.874 150.725 125.623 150.436C125.375 150.146 125.183 149.795 125.046 149.381C124.909 148.968 124.841 148.5 124.841 147.979V147.54C124.841 147.019 124.908 146.553 125.041 146.142C125.178 145.729 125.37 145.378 125.618 145.088C125.866 144.796 126.161 144.573 126.501 144.42C126.844 144.268 127.221 144.191 127.631 144.191C128.054 144.191 128.436 144.268 128.776 144.42C129.12 144.573 129.414 144.796 129.659 145.088C129.907 145.378 130.096 145.729 130.226 146.142C130.36 146.553 130.427 147.019 130.427 147.54ZM129.516 147.979V147.531C129.516 147.117 129.473 146.751 129.387 146.433C129.304 146.115 129.182 145.848 129.019 145.632C128.857 145.416 128.658 145.252 128.423 145.141C128.191 145.029 127.927 144.974 127.631 144.974C127.345 144.974 127.086 145.029 126.854 145.141C126.625 145.252 126.428 145.416 126.262 145.632C126.1 145.848 125.974 146.115 125.885 146.433C125.796 146.751 125.752 147.117 125.752 147.531V147.979C125.752 148.396 125.796 148.764 125.885 149.086C125.974 149.404 126.102 149.672 126.267 149.892C126.436 150.108 126.634 150.272 126.863 150.383C127.095 150.494 127.355 150.55 127.641 150.55C127.94 150.55 128.205 150.494 128.437 150.383C128.67 150.272 128.865 150.108 129.024 149.892C129.186 149.672 129.309 149.404 129.392 149.086C129.474 148.764 129.516 148.396 129.516 147.979ZM132.096 144.287H132.988L135.264 149.949L137.534 144.287H138.431L135.607 151.232H134.911L132.096 144.287ZM131.805 144.287H132.592L132.721 148.523V151.232H131.805V144.287ZM137.93 144.287H138.717V151.232H137.801V148.523L137.93 144.287Z" fill="#A9A9A9"/>
<path d="M35.682 118.561V135.924H32.1043L25.1279 124.285V135.924H21.5503V118.561H25.1279L32.1163 130.212V118.561H35.682ZM50.4457 133.134V135.924H41.2035V133.134H50.4457ZM42.3722 118.561V135.924H38.7945V118.561H42.3722ZM49.2412 125.632V128.351H41.2035V125.632H49.2412ZM50.4338 118.561V121.363H41.2035V118.561H50.4338ZM56.3369 118.561V135.924H52.7712V118.561H56.3369ZM59.6879 118.561H66.1635C67.4912 118.561 68.632 118.759 69.5861 119.157C70.5481 119.554 71.2874 120.143 71.8042 120.922C72.321 121.701 72.5794 122.659 72.5794 123.796C72.5794 124.726 72.4204 125.525 72.1023 126.193C71.7923 126.853 71.351 127.405 70.7786 127.851C70.2141 128.288 69.5503 128.638 68.7871 128.9L67.6541 129.496H62.0253L62.0015 126.706H66.1873C66.8154 126.706 67.3361 126.594 67.7496 126.372C68.163 126.149 68.473 125.839 68.6797 125.442C68.8944 125.044 69.0017 124.583 69.0017 124.058C69.0017 123.502 68.8984 123.021 68.6917 122.615C68.485 122.21 68.1709 121.9 67.7496 121.685C67.3282 121.47 66.7995 121.363 66.1635 121.363H63.2656V135.924H59.6879V118.561ZM69.3953 135.924L65.436 128.184L69.2164 128.161L73.2233 135.757V135.924H69.3953ZM89.597 126.837V127.66C89.597 128.979 89.4181 130.164 89.0604 131.214C88.7026 132.263 88.1977 133.157 87.5458 133.897C86.8939 134.628 86.1148 135.189 85.2084 135.578C84.31 135.968 83.3123 136.163 82.2151 136.163C81.1259 136.163 80.1282 135.968 79.2218 135.578C78.3235 135.189 77.5443 134.628 76.8845 133.897C76.2246 133.157 75.7118 132.263 75.3461 131.214C74.9883 130.164 74.8094 128.979 74.8094 127.66V126.837C74.8094 125.509 74.9883 124.325 75.3461 123.283C75.7038 122.234 76.2087 121.339 76.8606 120.6C77.5205 119.86 78.2996 119.296 79.198 118.906C80.1043 118.517 81.1021 118.322 82.1913 118.322C83.2884 118.322 84.2862 118.517 85.1846 118.906C86.0909 119.296 86.87 119.86 87.522 120.6C88.1818 121.339 88.6907 122.234 89.0484 123.283C89.4141 124.325 89.597 125.509 89.597 126.837ZM85.9836 127.66V126.813C85.9836 125.891 85.9001 125.08 85.7331 124.38C85.5662 123.681 85.3197 123.092 84.9938 122.615C84.6678 122.138 84.2703 121.78 83.8012 121.542C83.3322 121.296 82.7955 121.172 82.1913 121.172C81.5871 121.172 81.0504 121.296 80.5814 121.542C80.1202 121.78 79.7267 122.138 79.4007 122.615C79.0827 123.092 78.8402 123.681 78.6733 124.38C78.5063 125.08 78.4228 125.891 78.4228 126.813V127.66C78.4228 128.574 78.5063 129.385 78.6733 130.093C78.8402 130.792 79.0867 131.384 79.4127 131.869C79.7386 132.346 80.1361 132.708 80.6052 132.955C81.0743 133.201 81.6109 133.324 82.2151 133.324C82.8194 133.324 83.356 133.201 83.8251 132.955C84.2941 132.708 84.6877 132.346 85.0057 131.869C85.3237 131.384 85.5662 130.792 85.7331 130.093C85.9001 129.385 85.9836 128.574 85.9836 127.66ZM106.305 118.561V135.924H102.727L95.7505 124.285V135.924H92.1729V118.561H95.7505L102.739 130.212V118.561H106.305ZM121.068 133.134V135.924H111.826V133.134H121.068ZM112.995 118.561V135.924H109.417V118.561H112.995ZM119.864 125.632V128.351H111.826V125.632H119.864ZM121.056 118.561V121.363H111.826V118.561H121.056ZM129.416 132.299L133.507 118.561H137.49L131.443 135.924H128.82L129.416 132.299ZM125.648 118.561L129.726 132.299L130.346 135.924H127.699L121.688 118.561H125.648ZM153.207 126.837V127.66C153.207 128.979 153.029 130.164 152.671 131.214C152.313 132.263 151.808 133.157 151.156 133.897C150.504 134.628 149.725 135.189 148.819 135.578C147.92 135.968 146.923 136.163 145.826 136.163C144.736 136.163 143.739 135.968 142.832 135.578C141.934 135.189 141.155 134.628 140.495 133.897C139.835 133.157 139.322 132.263 138.956 131.214C138.599 130.164 138.42 128.979 138.42 127.66V126.837C138.42 125.509 138.599 124.325 138.956 123.283C139.314 122.234 139.819 121.339 140.471 120.6C141.131 119.86 141.91 119.296 142.808 118.906C143.715 118.517 144.713 118.322 145.802 118.322C146.899 118.322 147.897 118.517 148.795 118.906C149.701 119.296 150.48 119.86 151.132 120.6C151.792 121.339 152.301 122.234 152.659 123.283C153.025 124.325 153.207 125.509 153.207 126.837ZM149.594 127.66V126.813C149.594 125.891 149.511 125.08 149.344 124.38C149.177 123.681 148.93 123.092 148.604 122.615C148.278 122.138 147.881 121.78 147.412 121.542C146.943 121.296 146.406 121.172 145.802 121.172C145.197 121.172 144.661 121.296 144.192 121.542C143.731 121.78 143.337 122.138 143.011 122.615C142.693 123.092 142.451 123.681 142.284 124.38C142.117 125.08 142.033 125.891 142.033 126.813V127.66C142.033 128.574 142.117 129.385 142.284 130.093C142.451 130.792 142.697 131.384 143.023 131.869C143.349 132.346 143.747 132.708 144.216 132.955C144.685 133.201 145.221 133.324 145.826 133.324C146.43 133.324 146.966 133.201 147.435 132.955C147.905 132.708 148.298 132.346 148.616 131.869C148.934 131.384 149.177 130.792 149.344 130.093C149.511 129.385 149.594 128.574 149.594 127.66ZM161.114 135.924H157.334L157.357 133.134H161.114C162.052 133.134 162.843 132.923 163.487 132.501C164.131 132.072 164.616 131.448 164.942 130.629C165.276 129.81 165.443 128.82 165.443 127.66V126.813C165.443 125.923 165.348 125.139 165.157 124.464C164.974 123.788 164.7 123.219 164.334 122.758C163.968 122.297 163.519 121.951 162.986 121.721C162.454 121.482 161.841 121.363 161.15 121.363H157.262V118.561H161.15C162.311 118.561 163.372 118.759 164.334 119.157C165.304 119.546 166.143 120.107 166.85 120.838C167.558 121.57 168.102 122.444 168.484 123.462C168.873 124.472 169.068 125.597 169.068 126.837V127.66C169.068 128.892 168.873 130.017 168.484 131.035C168.102 132.052 167.558 132.927 166.85 133.658C166.151 134.382 165.312 134.942 164.334 135.34C163.364 135.729 162.291 135.924 161.114 135.924ZM159.361 118.561V135.924H155.783V118.561H159.361Z" fill="black"/>
<defs>
<clipPath id="clip0_301_317">
<rect width="87.9241" height="76.5265" fill="white" transform="translate(46.8656 25)"/>
</clipPath>
<clipPath id="clip1_301_317">
<rect width="33.4359" height="20.9831" fill="white" transform="translate(74.1097 66.9661)"/>
</clipPath>
</defs>
</svg>
