<svg width="190" height="188" viewBox="0 0 190 188" fill="none" xmlns="http://www.w3.org/2000/svg">
<g clip-path="url(#clip0_2010_2)">
<path d="M109.82 100.685H71.61C67.9532 100.685 64.7822 98.1721 63.9353 94.6073L61.7819 85.4915C60.4689 79.9404 60.4689 74.1592 61.7819 68.6081L63.9353 59.4923C64.7756 55.9275 67.9532 53.415 71.61 53.415H109.82C113.476 53.415 116.654 55.9341 117.494 59.5054L119.648 68.6541C120.948 74.1789 120.948 79.9273 119.648 85.452L117.494 94.6008C116.654 98.1655 113.476 100.691 109.82 100.691V100.685Z" stroke="#019571" stroke-width="3" stroke-miterlimit="10"/>
<path d="M105.532 95.3836H75.8905C73.0544 95.3836 70.5924 93.4302 69.9425 90.6678L68.2683 83.5974C67.2507 79.2894 67.2507 74.8104 68.2683 70.5025L69.9425 63.4321C70.599 60.6697 73.0609 58.7163 75.8905 58.7163H105.532C108.369 58.7163 110.837 60.6697 111.487 63.4387L113.155 70.5353C114.159 74.817 114.159 79.2829 113.155 83.5645L111.487 90.6612C110.837 93.4302 108.369 95.3836 105.532 95.3836Z" stroke="#019571" stroke-width="2" stroke-miterlimit="10"/>
<path d="M93.2029 47.6995C93.2029 49.0807 92.0868 50.1988 90.7082 50.1988C90.3668 50.1988 90.0385 50.1264 89.7365 50.0015C88.8436 49.62 88.2134 48.7321 88.2134 47.6995C88.2134 46.3183 89.3295 45.2002 90.7082 45.2002C92.0868 45.2002 93.2029 46.3183 93.2029 47.6995Z" fill="#019571"/>
<path d="M88.0427 52.4744H93.3802L90.7279 48.5742L88.0427 52.4744Z" fill="#019571"/>
<path d="M55.7747 63.662C55.7747 44.3253 71.4195 31.283 90.7212 31.283C110.023 31.283 125.668 44.3253 125.668 63.662" stroke="#019571" stroke-width="3" stroke-miterlimit="10"/>
<path d="M130.625 69.1079C130.625 66.3521 128.373 64.0962 125.622 64.0962C122.871 64.0962 120.619 66.3521 120.619 69.1079V87.8461C120.619 90.6019 122.871 92.8578 125.622 92.8578C128.373 92.8578 130.625 90.6019 130.625 87.8461V86.2873" stroke="#019571" stroke-width="3" stroke-miterlimit="10"/>
<path d="M133.881 77.8226C133.881 82.4989 132.463 86.2873 130.71 86.2873C128.957 86.2873 129.213 82.4989 129.213 77.8226C129.213 73.1463 128.957 69.3579 130.71 69.3579C132.463 69.3579 133.881 73.1463 133.881 77.8226Z" stroke="#019571" stroke-width="2" stroke-miterlimit="10"/>
<path d="M51.1069 69.1079C51.1069 66.3521 53.3588 64.0962 56.1096 64.0962C58.8604 64.0962 61.1123 66.3521 61.1123 69.1079V87.8461C61.1123 90.6019 58.8604 92.8578 56.1096 92.8578C53.3588 92.8578 51.1069 90.6019 51.1069 87.8461V86.2873" stroke="#019571" stroke-width="3" stroke-miterlimit="10"/>
<path d="M47.8506 77.8226C47.8506 82.4989 49.2687 86.2873 51.0216 86.2873C52.7745 86.2873 52.5184 82.4989 52.5184 77.8226C52.5184 73.1463 52.7745 69.3579 51.0216 69.3579C49.2687 69.3579 47.8506 73.1463 47.8506 77.8226Z" stroke="#019571" stroke-width="2" stroke-miterlimit="10"/>
<g clip-path="url(#clip1_2010_2)">
<path d="M86.8701 78.475C83.7451 79.2464 81.5793 81.3886 79.8764 84.1006C78.8511 85.7332 78.088 87.4735 77.7482 89.3825C77.71 89.6055 77.7287 89.9313 77.3954 89.9059C77.1356 89.8849 77.0041 89.6157 77.0043 89.369C77.0061 88.869 77.0187 88.3628 77.088 87.8688C77.7364 83.129 79.8818 79.3378 84.225 77.0297C87.2052 75.4464 90.3827 75.2909 93.6018 76.0948C96.9351 76.9261 99.8452 78.5907 102.442 80.8082C102.821 81.133 103.204 81.4942 103.456 81.9139C103.875 82.6178 104.212 83.0168 104.868 82.1183C105.095 81.808 105.452 81.986 105.696 82.2425C106.225 82.803 106.248 83.5834 105.699 84.1679C105.23 84.6676 104.7 85.1158 104.201 85.5893C103.911 85.8641 103.673 85.7433 103.458 85.4977C103.168 85.1696 103 84.7672 102.944 84.352C102.872 83.8132 102.619 83.3906 102.239 83.06C99.2147 80.4469 95.8551 78.5084 91.7962 78.0331C90.1753 77.8436 88.561 77.9706 86.8759 78.4733L86.8701 78.475Z" fill="#019571"/>
<path d="M78.3608 71.8332C78.1045 70.9246 77.9945 70.0124 78.3506 69.1073C78.7686 68.0412 79.6193 67.7969 80.4319 68.5967C81.2888 69.4434 82.1556 70.303 82.7124 71.4116C83.3525 72.6843 83.203 74.1623 82.3585 74.9357C81.821 75.4264 81.2848 75.4266 80.6847 75.1075C79.6426 74.553 78.7732 73.3351 78.36 71.8303L78.3608 71.8332Z" fill="#019571"/>
<path d="M94.5129 68.6745C94.8461 69.5211 94.8075 70.4966 94.6781 71.4726C94.6099 71.9819 94.4323 72.4812 93.8757 72.6557C93.3473 72.8191 92.8858 72.5923 92.4853 72.258C92.0406 71.8891 91.8024 71.3719 91.6301 70.855C91.1883 69.5175 90.8865 68.1532 91.1538 66.7265C91.3566 65.6426 92.215 65.3243 93.072 66.0586C93.8465 66.7223 94.2091 67.6293 94.5137 68.6774L94.5129 68.6745Z" fill="#019571"/>
</g>
</g>
<path d="M53.6457 144.902L51.3464 151.232H50.4067L53.0541 144.287H53.66L53.6457 144.902ZM55.5728 151.232L53.2688 144.902L53.2545 144.287H53.8603L56.5173 151.232H55.5728ZM55.4536 148.661V149.415H51.5515V148.661H55.4536ZM58.4349 144.287V151.232H57.5143V144.287H58.4349ZM65.0082 147.984H63.248L63.2385 147.244H64.8365C65.1005 147.244 65.331 147.2 65.5282 147.111C65.7253 147.022 65.878 146.894 65.9861 146.729C66.0974 146.561 66.1531 146.36 66.1531 146.128C66.1531 145.874 66.1038 145.667 66.0052 145.508C65.9098 145.346 65.7619 145.228 65.5616 145.155C65.3644 145.079 65.1132 145.04 64.8079 145.04H63.4532V151.232H62.5325V144.287H64.8079C65.1641 144.287 65.4821 144.323 65.7619 144.397C66.0418 144.466 66.2787 144.578 66.4727 144.73C66.6698 144.88 66.8193 145.071 66.9211 145.303C67.0228 145.535 67.0737 145.813 67.0737 146.138C67.0737 146.424 67.0006 146.683 66.8543 146.915C66.708 147.144 66.5045 147.332 66.2437 147.478C65.9861 147.624 65.684 147.718 65.3374 147.759L65.0082 147.984ZM64.9653 151.232H62.8855L63.4054 150.483H64.9653C65.2579 150.483 65.5059 150.432 65.7094 150.331C65.9162 150.229 66.0736 150.086 66.1817 149.901C66.2898 149.714 66.3439 149.493 66.3439 149.238C66.3439 148.981 66.2978 148.758 66.2055 148.57C66.1133 148.383 65.9686 148.238 65.7715 148.136C65.5743 148.035 65.3199 147.984 65.0082 147.984H63.6964L63.706 147.244H65.4996L65.6951 147.511C66.0291 147.54 66.3121 147.635 66.5442 147.798C66.7764 147.957 66.9529 148.16 67.0737 148.408C67.1977 148.656 67.2598 148.93 67.2598 149.229C67.2598 149.661 67.1644 150.027 66.9735 150.326C66.7859 150.622 66.5204 150.847 66.1769 151.003C65.8335 151.156 65.4296 151.232 64.9653 151.232ZM72.0061 144.287V151.232H71.0854V144.287H72.0061ZM76.2849 144.287L73.2702 148.108H71.6388L71.4957 147.344H72.7216L75.1449 144.287H76.2849ZM75.3595 151.232L72.7502 147.988L73.2654 147.182L76.4853 151.232H75.3595ZM79.8912 144.902L77.592 151.232H76.6523L79.2997 144.287H79.9055L79.8912 144.902ZM81.8184 151.232L79.5144 144.902L79.5001 144.287H80.1059L82.7629 151.232H81.8184ZM81.6991 148.661V149.415H77.7971V148.661H81.6991ZM85.6822 148.06L83.2017 144.287H84.2798L86.1258 147.297H87.4329L87.285 148.06H85.6822ZM86.1783 147.988L84.1605 151.232H83.0157L85.5963 147.197L86.1783 147.988ZM87.8288 144.287V151.232H86.9177V144.287H87.8288ZM91.5114 144.287L89.0213 148.06H87.4663L87.3232 147.297H88.5825L90.4285 144.287H91.5114ZM90.5478 151.232L88.5348 147.988L89.1215 147.197L91.6926 151.232H90.5478ZM98.1133 150.483V151.232H92.8566V150.483H98.1133ZM93.0044 150.483V152.94H92.0933L92.0886 150.483H93.0044ZM98.9147 150.483L98.9052 152.935H97.9941V150.483H98.9147ZM97.2117 144.287V145.04H94.1684V144.287H97.2117ZM98.0036 144.287V151.232H97.0877V144.287H98.0036ZM93.8535 144.287H94.7742L94.6311 147.082C94.612 147.502 94.5722 147.89 94.5118 148.246C94.4514 148.599 94.3767 148.922 94.2876 149.214C94.1986 149.507 94.0968 149.769 93.9823 150.001C93.8678 150.23 93.7454 150.429 93.615 150.598C93.4846 150.763 93.3479 150.9 93.2048 151.008C93.0649 151.113 92.9234 151.188 92.7802 151.232H92.3605V150.483H92.6562C92.7389 150.394 92.8327 150.265 92.9377 150.097C93.0458 149.928 93.1523 149.71 93.2573 149.443C93.3654 149.173 93.4592 148.844 93.5387 148.456C93.6214 148.068 93.677 147.61 93.7057 147.082L93.8535 144.287ZM100.742 147.116H102.636C103.144 147.116 103.574 147.201 103.923 147.373C104.273 147.542 104.539 147.779 104.72 148.084C104.901 148.389 104.992 148.747 104.992 149.157C104.992 149.462 104.941 149.742 104.839 149.997C104.738 150.248 104.587 150.467 104.386 150.655C104.186 150.839 103.939 150.983 103.647 151.084C103.354 151.183 103.017 151.232 102.636 151.232H100.041V144.287H100.961V150.483H102.636C102.976 150.483 103.251 150.421 103.461 150.297C103.674 150.17 103.83 150.005 103.928 149.801C104.027 149.598 104.076 149.38 104.076 149.148C104.076 148.915 104.027 148.702 103.928 148.508C103.83 148.314 103.674 148.16 103.461 148.046C103.251 147.928 102.976 147.869 102.636 147.869H100.742V147.116ZM106.752 144.287V151.232H105.832V144.287H106.752ZM109.409 149.639L112.829 144.287H113.75V151.232H112.829V145.875L109.409 151.232H108.493V144.287H109.409V149.639ZM111.852 142.565H112.567C112.567 142.813 112.51 143.034 112.395 143.228C112.281 143.419 112.117 143.568 111.904 143.676C111.691 143.784 111.438 143.838 111.146 143.838C110.704 143.838 110.354 143.721 110.096 143.485C109.842 143.247 109.715 142.94 109.715 142.565H110.43C110.43 142.752 110.484 142.918 110.592 143.061C110.7 143.204 110.885 143.276 111.146 143.276C111.4 143.276 111.581 143.204 111.689 143.061C111.797 142.918 111.852 142.752 111.852 142.565ZM123.31 150.483V151.232H118.053V150.483H123.31ZM118.201 150.483V152.94H117.29L117.285 150.483H118.201ZM124.111 150.483L124.101 152.935H123.19V150.483H124.111ZM122.408 144.287V145.04H119.365V144.287H122.408ZM123.2 144.287V151.232H122.284V144.287H123.2ZM119.05 144.287H119.97L119.827 147.082C119.808 147.502 119.768 147.89 119.708 148.246C119.648 148.599 119.573 148.922 119.484 149.214C119.395 149.507 119.293 149.769 119.179 150.001C119.064 150.23 118.942 150.429 118.811 150.598C118.681 150.763 118.544 150.9 118.401 151.008C118.261 151.113 118.12 151.188 117.976 151.232H117.557V150.483H117.852C117.935 150.394 118.029 150.265 118.134 150.097C118.242 149.928 118.349 149.71 118.453 149.443C118.562 149.173 118.655 148.844 118.735 148.456C118.818 148.068 118.873 147.61 118.902 147.082L119.05 144.287ZM130.427 147.54V147.979C130.427 148.5 130.361 148.968 130.231 149.381C130.101 149.795 129.913 150.146 129.668 150.436C129.423 150.725 129.129 150.946 128.786 151.099C128.445 151.251 128.064 151.328 127.641 151.328C127.231 151.328 126.854 151.251 126.51 151.099C126.17 150.946 125.874 150.725 125.623 150.436C125.375 150.146 125.183 149.795 125.046 149.381C124.909 148.968 124.841 148.5 124.841 147.979V147.54C124.841 147.019 124.908 146.553 125.041 146.142C125.178 145.729 125.37 145.378 125.618 145.088C125.866 144.796 126.161 144.573 126.501 144.42C126.844 144.268 127.221 144.191 127.631 144.191C128.054 144.191 128.436 144.268 128.776 144.42C129.12 144.573 129.414 144.796 129.659 145.088C129.907 145.378 130.096 145.729 130.226 146.142C130.36 146.553 130.427 147.019 130.427 147.54ZM129.516 147.979V147.531C129.516 147.117 129.473 146.751 129.387 146.433C129.304 146.115 129.182 145.848 129.019 145.632C128.857 145.416 128.658 145.252 128.423 145.141C128.191 145.029 127.927 144.974 127.631 144.974C127.345 144.974 127.086 145.029 126.854 145.141C126.625 145.252 126.428 145.416 126.262 145.632C126.1 145.848 125.974 146.115 125.885 146.433C125.796 146.751 125.752 147.117 125.752 147.531V147.979C125.752 148.396 125.796 148.764 125.885 149.086C125.974 149.404 126.102 149.672 126.267 149.892C126.436 150.108 126.634 150.272 126.863 150.383C127.095 150.494 127.355 150.55 127.641 150.55C127.94 150.55 128.205 150.494 128.437 150.383C128.67 150.272 128.865 150.108 129.024 149.892C129.186 149.672 129.309 149.404 129.392 149.086C129.474 148.764 129.516 148.396 129.516 147.979ZM132.096 144.287H132.988L135.264 149.949L137.534 144.287H138.431L135.607 151.232H134.911L132.096 144.287ZM131.805 144.287H132.592L132.721 148.523V151.232H131.805V144.287ZM137.93 144.287H138.717V151.232H137.801V148.523L137.93 144.287Z" fill="#A9A9A9"/>
<path d="M35.682 118.561V135.924H32.1043L25.1279 124.285V135.924H21.5503V118.561H25.1279L32.1163 130.212V118.561H35.682ZM50.4457 133.134V135.924H41.2035V133.134H50.4457ZM42.3722 118.561V135.924H38.7945V118.561H42.3722ZM49.2412 125.632V128.351H41.2035V125.632H49.2412ZM50.4338 118.561V121.363H41.2035V118.561H50.4338ZM56.3369 118.561V135.924H52.7712V118.561H56.3369ZM59.6879 118.561H66.1635C67.4912 118.561 68.632 118.759 69.5861 119.157C70.5481 119.554 71.2874 120.143 71.8042 120.922C72.321 121.701 72.5794 122.659 72.5794 123.796C72.5794 124.726 72.4204 125.525 72.1023 126.193C71.7923 126.853 71.351 127.405 70.7786 127.851C70.2141 128.288 69.5503 128.638 68.7871 128.9L67.6541 129.496H62.0253L62.0015 126.706H66.1873C66.8154 126.706 67.3361 126.594 67.7496 126.372C68.163 126.149 68.473 125.839 68.6797 125.442C68.8944 125.044 69.0017 124.583 69.0017 124.058C69.0017 123.502 68.8984 123.021 68.6917 122.615C68.485 122.21 68.1709 121.9 67.7496 121.685C67.3282 121.47 66.7995 121.363 66.1635 121.363H63.2656V135.924H59.6879V118.561ZM69.3953 135.924L65.436 128.184L69.2164 128.161L73.2233 135.757V135.924H69.3953ZM89.597 126.837V127.66C89.597 128.979 89.4181 130.164 89.0604 131.214C88.7026 132.263 88.1977 133.157 87.5458 133.897C86.8939 134.628 86.1148 135.189 85.2084 135.578C84.31 135.968 83.3123 136.163 82.2151 136.163C81.1259 136.163 80.1282 135.968 79.2218 135.578C78.3235 135.189 77.5443 134.628 76.8845 133.897C76.2246 133.157 75.7118 132.263 75.3461 131.214C74.9883 130.164 74.8094 128.979 74.8094 127.66V126.837C74.8094 125.509 74.9883 124.325 75.3461 123.283C75.7038 122.234 76.2087 121.339 76.8606 120.6C77.5205 119.86 78.2996 119.296 79.198 118.906C80.1043 118.517 81.1021 118.322 82.1913 118.322C83.2884 118.322 84.2862 118.517 85.1846 118.906C86.0909 119.296 86.87 119.86 87.522 120.6C88.1818 121.339 88.6907 122.234 89.0484 123.283C89.4141 124.325 89.597 125.509 89.597 126.837ZM85.9836 127.66V126.813C85.9836 125.891 85.9001 125.08 85.7331 124.38C85.5662 123.681 85.3197 123.092 84.9938 122.615C84.6678 122.138 84.2703 121.78 83.8012 121.542C83.3322 121.296 82.7955 121.172 82.1913 121.172C81.5871 121.172 81.0504 121.296 80.5814 121.542C80.1202 121.78 79.7267 122.138 79.4007 122.615C79.0827 123.092 78.8402 123.681 78.6733 124.38C78.5063 125.08 78.4228 125.891 78.4228 126.813V127.66C78.4228 128.574 78.5063 129.385 78.6733 130.093C78.8402 130.792 79.0867 131.384 79.4127 131.869C79.7386 132.346 80.1361 132.708 80.6052 132.955C81.0743 133.201 81.6109 133.324 82.2151 133.324C82.8194 133.324 83.356 133.201 83.8251 132.955C84.2941 132.708 84.6877 132.346 85.0057 131.869C85.3237 131.384 85.5662 130.792 85.7331 130.093C85.9001 129.385 85.9836 128.574 85.9836 127.66ZM106.305 118.561V135.924H102.727L95.7505 124.285V135.924H92.1729V118.561H95.7505L102.739 130.212V118.561H106.305ZM121.068 133.134V135.924H111.826V133.134H121.068ZM112.995 118.561V135.924H109.417V118.561H112.995ZM119.864 125.632V128.351H111.826V125.632H119.864ZM121.056 118.561V121.363H111.826V118.561H121.056ZM129.416 132.299L133.507 118.561H137.49L131.443 135.924H128.82L129.416 132.299ZM125.648 118.561L129.726 132.299L130.346 135.924H127.699L121.688 118.561H125.648ZM153.207 126.837V127.66C153.207 128.979 153.029 130.164 152.671 131.214C152.313 132.263 151.808 133.157 151.156 133.897C150.504 134.628 149.725 135.189 148.819 135.578C147.92 135.968 146.923 136.163 145.826 136.163C144.736 136.163 143.739 135.968 142.832 135.578C141.934 135.189 141.155 134.628 140.495 133.897C139.835 133.157 139.322 132.263 138.956 131.214C138.599 130.164 138.42 128.979 138.42 127.66V126.837C138.42 125.509 138.599 124.325 138.956 123.283C139.314 122.234 139.819 121.339 140.471 120.6C141.131 119.86 141.91 119.296 142.808 118.906C143.715 118.517 144.713 118.322 145.802 118.322C146.899 118.322 147.897 118.517 148.795 118.906C149.701 119.296 150.48 119.86 151.132 120.6C151.792 121.339 152.301 122.234 152.659 123.283C153.025 124.325 153.207 125.509 153.207 126.837ZM149.594 127.66V126.813C149.594 125.891 149.511 125.08 149.344 124.38C149.177 123.681 148.93 123.092 148.604 122.615C148.278 122.138 147.881 121.78 147.412 121.542C146.943 121.296 146.406 121.172 145.802 121.172C145.197 121.172 144.661 121.296 144.192 121.542C143.731 121.78 143.337 122.138 143.011 122.615C142.693 123.092 142.451 123.681 142.284 124.38C142.117 125.08 142.033 125.891 142.033 126.813V127.66C142.033 128.574 142.117 129.385 142.284 130.093C142.451 130.792 142.697 131.384 143.023 131.869C143.349 132.346 143.747 132.708 144.216 132.955C144.685 133.201 145.221 133.324 145.826 133.324C146.43 133.324 146.966 133.201 147.435 132.955C147.905 132.708 148.298 132.346 148.616 131.869C148.934 131.384 149.177 130.792 149.344 130.093C149.511 129.385 149.594 128.574 149.594 127.66ZM161.114 135.924H157.334L157.357 133.134H161.114C162.052 133.134 162.843 132.923 163.487 132.501C164.131 132.072 164.616 131.448 164.942 130.629C165.276 129.81 165.443 128.82 165.443 127.66V126.813C165.443 125.923 165.348 125.139 165.157 124.464C164.974 123.788 164.7 123.219 164.334 122.758C163.968 122.297 163.519 121.951 162.986 121.721C162.454 121.482 161.841 121.363 161.15 121.363H157.262V118.561H161.15C162.311 118.561 163.372 118.759 164.334 119.157C165.304 119.546 166.143 120.107 166.85 120.838C167.558 121.57 168.102 122.444 168.484 123.462C168.873 124.472 169.068 125.597 169.068 126.837V127.66C169.068 128.892 168.873 130.017 168.484 131.035C168.102 132.052 167.558 132.927 166.85 133.658C166.151 134.382 165.312 134.942 164.334 135.34C163.364 135.729 162.291 135.924 161.114 135.924ZM159.361 118.561V135.924H155.783V118.561H159.361Z" fill="black"/>
<defs>
<clipPath id="clip0_2010_2">
<rect width="88" height="77" fill="white" transform="translate(46.8657 25)"/>
</clipPath>
<clipPath id="clip1_2010_2">
<rect width="29.7508" height="23.5933" fill="white" transform="matrix(0.963005 -0.269482 0.268477 0.963286 71.6545 70.2754)"/>
</clipPath>
</defs>
</svg>
