<svg width="190" height="188" viewBox="0 0 190 188" fill="none" xmlns="http://www.w3.org/2000/svg">
<g clip-path="url(#clip0_2010_25)">
<path d="M109.954 100.211H71.7443C68.0875 100.211 64.9165 97.6987 64.0696 94.1339L61.9162 85.0181C60.6031 79.467 60.6031 73.6858 61.9162 68.1347L64.0696 59.0189C64.9099 55.4541 68.0875 52.9417 71.7443 52.9417H109.954C113.611 52.9417 116.788 55.4607 117.629 59.032L119.782 68.1808C121.082 73.7055 121.082 79.4539 119.782 84.9786L117.629 94.1274C116.788 97.6921 113.611 100.218 109.954 100.218V100.211Z" stroke="#019571" stroke-width="3" stroke-miterlimit="10"/>
<path d="M105.667 94.9102H76.0248C73.1886 94.9102 70.7267 92.9568 70.0767 90.1944L68.4026 83.124C67.385 78.8161 67.385 74.3371 68.4026 70.0291L70.0767 62.9587C70.7333 60.1963 73.1952 58.2429 76.0248 58.2429H105.667C108.503 58.2429 110.971 60.1963 111.621 62.9653L113.289 70.0619C114.293 74.3436 114.293 78.8095 113.289 83.0912L111.621 90.1878C110.971 92.9568 108.503 94.9102 105.667 94.9102Z" stroke="#019571" stroke-width="2" stroke-miterlimit="10"/>
<path d="M93.3372 47.2261C93.3372 48.6073 92.2211 49.7254 90.8424 49.7254C90.501 49.7254 90.1728 49.653 89.8708 49.5281C88.9779 49.1466 88.3477 48.2587 88.3477 47.2261C88.3477 45.8449 89.4637 44.7268 90.8424 44.7268C92.2211 44.7268 93.3372 45.8449 93.3372 47.2261Z" fill="#019571"/>
<path d="M88.177 52.001H93.5145L90.8622 48.1008L88.177 52.001Z" fill="#019571"/>
<path d="M55.9089 63.1886C55.9089 43.8519 71.5538 30.8096 90.8555 30.8096C110.157 30.8096 125.802 43.8519 125.802 63.1886" stroke="#019571" stroke-width="3" stroke-miterlimit="10"/>
<path d="M130.759 68.6345C130.759 65.8787 128.507 63.6228 125.756 63.6228C123.005 63.6228 120.753 65.8787 120.753 68.6345V87.3727C120.753 90.1285 123.005 92.3844 125.756 92.3844C128.507 92.3844 130.759 90.1285 130.759 87.3727V85.8139" stroke="#019571" stroke-width="3" stroke-miterlimit="10"/>
<path d="M134.015 77.3492C134.015 82.0255 132.597 85.8139 130.844 85.8139C129.091 85.8139 129.347 82.0255 129.347 77.3492C129.347 72.6729 129.091 68.8845 130.844 68.8845C132.597 68.8845 134.015 72.6729 134.015 77.3492Z" stroke="#019571" stroke-width="2" stroke-miterlimit="10"/>
<path d="M51.2412 68.6345C51.2412 65.8787 53.4931 63.6228 56.2439 63.6228C58.9947 63.6228 61.2466 65.8787 61.2466 68.6345V87.3727C61.2466 90.1285 58.9947 92.3844 56.2439 92.3844C53.4931 92.3844 51.2412 90.1285 51.2412 87.3727V85.8139" stroke="#019571" stroke-width="3" stroke-miterlimit="10"/>
<path d="M47.9849 77.3492C47.9849 82.0255 49.4029 85.8139 51.1559 85.8139C52.9088 85.8139 52.6527 82.0255 52.6527 77.3492C52.6527 72.6729 52.9088 68.8845 51.1559 68.8845C49.4029 68.8845 47.9849 72.6729 47.9849 77.3492Z" stroke="#019571" stroke-width="2" stroke-miterlimit="10"/>
<g clip-path="url(#clip1_2010_25)">
<path d="M94.5379 75.0446C95.3737 74.7627 96.2616 74.4892 96.9901 74.072C98.2657 73.3453 99.5495 72.5716 100.619 71.505C101.521 70.607 102.279 69.6123 102.928 68.5209C103.225 68.018 103.503 68.0153 103.819 68.4988C103.956 68.7088 104.008 68.9409 104.011 69.1896C104.041 73.757 103.176 78.0978 100.646 81.9661C98.1612 85.7653 94.6342 87.8598 90.079 87.8625C86.7883 87.8625 84.0832 86.3042 81.796 84.0191C79.6572 81.886 78.2525 79.366 78.0051 76.2769C77.9528 75.6386 78.0105 75.0114 78.093 74.3869C78.1343 74.0692 78.2662 73.7597 78.6428 73.7017C78.992 73.6492 79.1707 73.873 79.2944 74.1631C79.3493 74.2902 79.3933 74.4284 79.5803 74.4477C81.4936 74.6384 83.264 75.4342 85.1444 75.7768C87.4646 76.1995 89.7628 76.1774 92.061 75.6552C92.248 75.6138 92.4432 75.6138 92.6356 75.5972C92.828 76.1636 93.2734 76.2797 93.7764 76.1719C94.3565 76.0476 94.5709 75.6165 94.5352 75.0446H94.5379ZM102.719 71.6764C98.6945 76.1332 93.7132 77.8215 88.1024 77.9209C85.4715 77.9679 83.0331 76.9981 80.5672 76.2161C80.1878 76.0973 79.6957 75.7105 79.4428 75.9757C79.1926 76.241 79.3961 76.8019 79.4978 77.2246C80.1713 80.0264 81.939 82.0297 84.174 83.6903C87.8137 86.3953 92.2865 86.6053 96.0692 84.1572C100.509 81.2864 102.048 76.8102 102.719 71.6791V71.6764Z" fill="#019571"/>
<path d="M84.0146 68.8499C83.9074 67.9242 84.4325 67.1312 84.8503 66.3272C85.0318 65.979 85.4799 65.8436 85.928 66.0702C87.2063 66.7168 88.4901 68.4658 88.1052 70.2922C87.8303 71.5936 86.7609 71.9722 85.5706 71.414C84.4435 70.889 83.9844 70.0877 84.0174 68.8499H84.0146Z" fill="#019571"/>
<path d="M97.9028 67.8687C97.8726 68.2611 97.8863 68.5706 97.7764 68.88C97.3668 70.0267 96.1929 70.3611 95.3682 69.4686C94.3483 68.3661 93.8864 67.0371 94.2246 65.5118C94.3593 64.9012 94.6919 64.4315 95.3297 64.2988C95.9373 64.1717 96.3661 64.4591 96.7372 64.9509C97.4135 65.8462 97.8616 66.8132 97.9028 67.8715V67.8687Z" fill="#019571"/>
<path d="M94.538 75.0445C94.571 75.6165 94.3593 76.0475 93.7793 76.1718C93.2762 76.2796 92.8336 76.1635 92.6384 75.5971C92.7594 75.4673 92.9133 75.4507 93.0755 75.4617C93.5044 75.9397 93.9112 75.8292 94.2356 75.1523C94.3071 75.0307 94.4171 75.0279 94.538 75.0473V75.0445Z" fill="#019571"/>
<path d="M94.2355 75.1497C93.9112 75.8294 93.5043 75.9371 93.0754 75.4591C93.4466 75.2933 93.8287 75.1745 94.2355 75.1497Z" fill="#019571"/>
</g>
</g>
<path d="M53.6457 144.902L51.3464 151.232H50.4067L53.0541 144.287H53.66L53.6457 144.902ZM55.5728 151.232L53.2688 144.902L53.2545 144.287H53.8603L56.5173 151.232H55.5728ZM55.4536 148.661V149.415H51.5515V148.661H55.4536ZM58.4349 144.287V151.232H57.5143V144.287H58.4349ZM65.0082 147.984H63.248L63.2385 147.244H64.8365C65.1005 147.244 65.331 147.2 65.5282 147.111C65.7253 147.022 65.878 146.894 65.9861 146.729C66.0974 146.561 66.1531 146.36 66.1531 146.128C66.1531 145.874 66.1038 145.667 66.0052 145.508C65.9098 145.346 65.7619 145.228 65.5616 145.155C65.3644 145.079 65.1132 145.04 64.8079 145.04H63.4532V151.232H62.5325V144.287H64.8079C65.1641 144.287 65.4821 144.323 65.7619 144.397C66.0418 144.466 66.2787 144.578 66.4727 144.73C66.6698 144.88 66.8193 145.071 66.9211 145.303C67.0228 145.535 67.0737 145.813 67.0737 146.138C67.0737 146.424 67.0006 146.683 66.8543 146.915C66.708 147.144 66.5045 147.332 66.2437 147.478C65.9861 147.624 65.684 147.718 65.3374 147.759L65.0082 147.984ZM64.9653 151.232H62.8855L63.4054 150.483H64.9653C65.2579 150.483 65.5059 150.432 65.7094 150.331C65.9162 150.229 66.0736 150.086 66.1817 149.901C66.2898 149.714 66.3439 149.493 66.3439 149.238C66.3439 148.981 66.2978 148.758 66.2055 148.57C66.1133 148.383 65.9686 148.238 65.7715 148.136C65.5743 148.035 65.3199 147.984 65.0082 147.984H63.6964L63.706 147.244H65.4996L65.6951 147.511C66.0291 147.54 66.3121 147.635 66.5442 147.798C66.7764 147.957 66.9529 148.16 67.0737 148.408C67.1977 148.656 67.2598 148.93 67.2598 149.229C67.2598 149.661 67.1644 150.027 66.9735 150.326C66.7859 150.622 66.5204 150.847 66.1769 151.003C65.8335 151.156 65.4296 151.232 64.9653 151.232ZM72.0061 144.287V151.232H71.0854V144.287H72.0061ZM76.2849 144.287L73.2702 148.108H71.6388L71.4957 147.344H72.7216L75.1449 144.287H76.2849ZM75.3595 151.232L72.7502 147.988L73.2654 147.182L76.4853 151.232H75.3595ZM79.8912 144.902L77.592 151.232H76.6523L79.2997 144.287H79.9055L79.8912 144.902ZM81.8184 151.232L79.5144 144.902L79.5001 144.287H80.1059L82.7629 151.232H81.8184ZM81.6991 148.661V149.415H77.7971V148.661H81.6991ZM85.6822 148.06L83.2017 144.287H84.2798L86.1258 147.297H87.4329L87.285 148.06H85.6822ZM86.1783 147.988L84.1605 151.232H83.0157L85.5963 147.197L86.1783 147.988ZM87.8288 144.287V151.232H86.9177V144.287H87.8288ZM91.5114 144.287L89.0213 148.06H87.4663L87.3232 147.297H88.5825L90.4285 144.287H91.5114ZM90.5478 151.232L88.5348 147.988L89.1215 147.197L91.6926 151.232H90.5478ZM98.1133 150.483V151.232H92.8566V150.483H98.1133ZM93.0044 150.483V152.94H92.0933L92.0886 150.483H93.0044ZM98.9147 150.483L98.9052 152.935H97.9941V150.483H98.9147ZM97.2117 144.287V145.04H94.1684V144.287H97.2117ZM98.0036 144.287V151.232H97.0877V144.287H98.0036ZM93.8535 144.287H94.7742L94.6311 147.082C94.612 147.502 94.5722 147.89 94.5118 148.246C94.4514 148.599 94.3767 148.922 94.2876 149.214C94.1986 149.507 94.0968 149.769 93.9823 150.001C93.8678 150.23 93.7454 150.429 93.615 150.598C93.4846 150.763 93.3479 150.9 93.2048 151.008C93.0649 151.113 92.9234 151.188 92.7802 151.232H92.3605V150.483H92.6562C92.7389 150.394 92.8327 150.265 92.9377 150.097C93.0458 149.928 93.1523 149.71 93.2573 149.443C93.3654 149.173 93.4592 148.844 93.5387 148.456C93.6214 148.068 93.677 147.61 93.7057 147.082L93.8535 144.287ZM100.742 147.116H102.636C103.144 147.116 103.574 147.201 103.923 147.373C104.273 147.542 104.539 147.779 104.72 148.084C104.901 148.389 104.992 148.747 104.992 149.157C104.992 149.462 104.941 149.742 104.839 149.997C104.738 150.248 104.587 150.467 104.386 150.655C104.186 150.839 103.939 150.983 103.647 151.084C103.354 151.183 103.017 151.232 102.636 151.232H100.041V144.287H100.961V150.483H102.636C102.976 150.483 103.251 150.421 103.461 150.297C103.674 150.17 103.83 150.005 103.928 149.801C104.027 149.598 104.076 149.38 104.076 149.148C104.076 148.915 104.027 148.702 103.928 148.508C103.83 148.314 103.674 148.16 103.461 148.046C103.251 147.928 102.976 147.869 102.636 147.869H100.742V147.116ZM106.752 144.287V151.232H105.832V144.287H106.752ZM109.409 149.639L112.829 144.287H113.75V151.232H112.829V145.875L109.409 151.232H108.493V144.287H109.409V149.639ZM111.852 142.565H112.567C112.567 142.813 112.51 143.034 112.395 143.228C112.281 143.419 112.117 143.568 111.904 143.676C111.691 143.784 111.438 143.838 111.146 143.838C110.704 143.838 110.354 143.721 110.096 143.485C109.842 143.247 109.715 142.94 109.715 142.565H110.43C110.43 142.752 110.484 142.918 110.592 143.061C110.7 143.204 110.885 143.276 111.146 143.276C111.4 143.276 111.581 143.204 111.689 143.061C111.797 142.918 111.852 142.752 111.852 142.565ZM123.31 150.483V151.232H118.053V150.483H123.31ZM118.201 150.483V152.94H117.29L117.285 150.483H118.201ZM124.111 150.483L124.101 152.935H123.19V150.483H124.111ZM122.408 144.287V145.04H119.365V144.287H122.408ZM123.2 144.287V151.232H122.284V144.287H123.2ZM119.05 144.287H119.97L119.827 147.082C119.808 147.502 119.768 147.89 119.708 148.246C119.648 148.599 119.573 148.922 119.484 149.214C119.395 149.507 119.293 149.769 119.179 150.001C119.064 150.23 118.942 150.429 118.811 150.598C118.681 150.763 118.544 150.9 118.401 151.008C118.261 151.113 118.12 151.188 117.976 151.232H117.557V150.483H117.852C117.935 150.394 118.029 150.265 118.134 150.097C118.242 149.928 118.349 149.71 118.453 149.443C118.562 149.173 118.655 148.844 118.735 148.456C118.818 148.068 118.873 147.61 118.902 147.082L119.05 144.287ZM130.427 147.54V147.979C130.427 148.5 130.361 148.968 130.231 149.381C130.101 149.795 129.913 150.146 129.668 150.436C129.423 150.725 129.129 150.946 128.786 151.099C128.445 151.251 128.064 151.328 127.641 151.328C127.231 151.328 126.854 151.251 126.51 151.099C126.17 150.946 125.874 150.725 125.623 150.436C125.375 150.146 125.183 149.795 125.046 149.381C124.909 148.968 124.841 148.5 124.841 147.979V147.54C124.841 147.019 124.908 146.553 125.041 146.142C125.178 145.729 125.37 145.378 125.618 145.088C125.866 144.796 126.161 144.573 126.501 144.42C126.844 144.268 127.221 144.191 127.631 144.191C128.054 144.191 128.436 144.268 128.776 144.42C129.12 144.573 129.414 144.796 129.659 145.088C129.907 145.378 130.096 145.729 130.226 146.142C130.36 146.553 130.427 147.019 130.427 147.54ZM129.516 147.979V147.531C129.516 147.117 129.473 146.751 129.387 146.433C129.304 146.115 129.182 145.848 129.019 145.632C128.857 145.416 128.658 145.252 128.423 145.141C128.191 145.029 127.927 144.974 127.631 144.974C127.345 144.974 127.086 145.029 126.854 145.141C126.625 145.252 126.428 145.416 126.262 145.632C126.1 145.848 125.974 146.115 125.885 146.433C125.796 146.751 125.752 147.117 125.752 147.531V147.979C125.752 148.396 125.796 148.764 125.885 149.086C125.974 149.404 126.102 149.672 126.267 149.892C126.436 150.108 126.634 150.272 126.863 150.383C127.095 150.494 127.355 150.55 127.641 150.55C127.94 150.55 128.205 150.494 128.437 150.383C128.67 150.272 128.865 150.108 129.024 149.892C129.186 149.672 129.309 149.404 129.392 149.086C129.474 148.764 129.516 148.396 129.516 147.979ZM132.096 144.287H132.988L135.264 149.949L137.534 144.287H138.431L135.607 151.232H134.911L132.096 144.287ZM131.805 144.287H132.592L132.721 148.523V151.232H131.805V144.287ZM137.93 144.287H138.717V151.232H137.801V148.523L137.93 144.287Z" fill="#A9A9A9"/>
<path d="M35.682 118.561V135.924H32.1043L25.1279 124.285V135.924H21.5503V118.561H25.1279L32.1163 130.212V118.561H35.682ZM50.4457 133.134V135.924H41.2035V133.134H50.4457ZM42.3722 118.561V135.924H38.7945V118.561H42.3722ZM49.2412 125.632V128.351H41.2035V125.632H49.2412ZM50.4338 118.561V121.363H41.2035V118.561H50.4338ZM56.3369 118.561V135.924H52.7712V118.561H56.3369ZM59.6879 118.561H66.1635C67.4912 118.561 68.632 118.759 69.5861 119.157C70.5481 119.554 71.2874 120.143 71.8042 120.922C72.321 121.701 72.5794 122.659 72.5794 123.796C72.5794 124.726 72.4204 125.525 72.1023 126.193C71.7923 126.853 71.351 127.405 70.7786 127.851C70.2141 128.288 69.5503 128.638 68.7871 128.9L67.6541 129.496H62.0253L62.0015 126.706H66.1873C66.8154 126.706 67.3361 126.594 67.7496 126.372C68.163 126.149 68.473 125.839 68.6797 125.442C68.8944 125.044 69.0017 124.583 69.0017 124.058C69.0017 123.502 68.8984 123.021 68.6917 122.615C68.485 122.21 68.1709 121.9 67.7496 121.685C67.3282 121.47 66.7995 121.363 66.1635 121.363H63.2656V135.924H59.6879V118.561ZM69.3953 135.924L65.436 128.184L69.2164 128.161L73.2233 135.757V135.924H69.3953ZM89.597 126.837V127.66C89.597 128.979 89.4181 130.164 89.0604 131.214C88.7026 132.263 88.1977 133.157 87.5458 133.897C86.8939 134.628 86.1148 135.189 85.2084 135.578C84.31 135.968 83.3123 136.163 82.2151 136.163C81.1259 136.163 80.1282 135.968 79.2218 135.578C78.3235 135.189 77.5443 134.628 76.8845 133.897C76.2246 133.157 75.7118 132.263 75.3461 131.214C74.9883 130.164 74.8094 128.979 74.8094 127.66V126.837C74.8094 125.509 74.9883 124.325 75.3461 123.283C75.7038 122.234 76.2087 121.339 76.8606 120.6C77.5205 119.86 78.2996 119.296 79.198 118.906C80.1043 118.517 81.1021 118.322 82.1913 118.322C83.2884 118.322 84.2862 118.517 85.1846 118.906C86.0909 119.296 86.87 119.86 87.522 120.6C88.1818 121.339 88.6907 122.234 89.0484 123.283C89.4141 124.325 89.597 125.509 89.597 126.837ZM85.9836 127.66V126.813C85.9836 125.891 85.9001 125.08 85.7331 124.38C85.5662 123.681 85.3197 123.092 84.9938 122.615C84.6678 122.138 84.2703 121.78 83.8012 121.542C83.3322 121.296 82.7955 121.172 82.1913 121.172C81.5871 121.172 81.0504 121.296 80.5814 121.542C80.1202 121.78 79.7267 122.138 79.4007 122.615C79.0827 123.092 78.8402 123.681 78.6733 124.38C78.5063 125.08 78.4228 125.891 78.4228 126.813V127.66C78.4228 128.574 78.5063 129.385 78.6733 130.093C78.8402 130.792 79.0867 131.384 79.4127 131.869C79.7386 132.346 80.1361 132.708 80.6052 132.955C81.0743 133.201 81.6109 133.324 82.2151 133.324C82.8194 133.324 83.356 133.201 83.8251 132.955C84.2941 132.708 84.6877 132.346 85.0057 131.869C85.3237 131.384 85.5662 130.792 85.7331 130.093C85.9001 129.385 85.9836 128.574 85.9836 127.66ZM106.305 118.561V135.924H102.727L95.7505 124.285V135.924H92.1729V118.561H95.7505L102.739 130.212V118.561H106.305ZM121.068 133.134V135.924H111.826V133.134H121.068ZM112.995 118.561V135.924H109.417V118.561H112.995ZM119.864 125.632V128.351H111.826V125.632H119.864ZM121.056 118.561V121.363H111.826V118.561H121.056ZM129.416 132.299L133.507 118.561H137.49L131.443 135.924H128.82L129.416 132.299ZM125.648 118.561L129.726 132.299L130.346 135.924H127.699L121.688 118.561H125.648ZM153.207 126.837V127.66C153.207 128.979 153.029 130.164 152.671 131.214C152.313 132.263 151.808 133.157 151.156 133.897C150.504 134.628 149.725 135.189 148.819 135.578C147.92 135.968 146.923 136.163 145.826 136.163C144.736 136.163 143.739 135.968 142.832 135.578C141.934 135.189 141.155 134.628 140.495 133.897C139.835 133.157 139.322 132.263 138.956 131.214C138.599 130.164 138.42 128.979 138.42 127.66V126.837C138.42 125.509 138.599 124.325 138.956 123.283C139.314 122.234 139.819 121.339 140.471 120.6C141.131 119.86 141.91 119.296 142.808 118.906C143.715 118.517 144.713 118.322 145.802 118.322C146.899 118.322 147.897 118.517 148.795 118.906C149.701 119.296 150.48 119.86 151.132 120.6C151.792 121.339 152.301 122.234 152.659 123.283C153.025 124.325 153.207 125.509 153.207 126.837ZM149.594 127.66V126.813C149.594 125.891 149.511 125.08 149.344 124.38C149.177 123.681 148.93 123.092 148.604 122.615C148.278 122.138 147.881 121.78 147.412 121.542C146.943 121.296 146.406 121.172 145.802 121.172C145.197 121.172 144.661 121.296 144.192 121.542C143.731 121.78 143.337 122.138 143.011 122.615C142.693 123.092 142.451 123.681 142.284 124.38C142.117 125.08 142.033 125.891 142.033 126.813V127.66C142.033 128.574 142.117 129.385 142.284 130.093C142.451 130.792 142.697 131.384 143.023 131.869C143.349 132.346 143.747 132.708 144.216 132.955C144.685 133.201 145.221 133.324 145.826 133.324C146.43 133.324 146.966 133.201 147.435 132.955C147.905 132.708 148.298 132.346 148.616 131.869C148.934 131.384 149.177 130.792 149.344 130.093C149.511 129.385 149.594 128.574 149.594 127.66ZM161.114 135.924H157.334L157.357 133.134H161.114C162.052 133.134 162.843 132.923 163.487 132.501C164.131 132.072 164.616 131.448 164.942 130.629C165.276 129.81 165.443 128.82 165.443 127.66V126.813C165.443 125.923 165.348 125.139 165.157 124.464C164.974 123.788 164.7 123.219 164.334 122.758C163.968 122.297 163.519 121.951 162.986 121.721C162.454 121.482 161.841 121.363 161.15 121.363H157.262V118.561H161.15C162.311 118.561 163.372 118.759 164.334 119.157C165.304 119.546 166.143 120.107 166.85 120.838C167.558 121.57 168.102 122.444 168.484 123.462C168.873 124.472 169.068 125.597 169.068 126.837V127.66C169.068 128.892 168.873 130.017 168.484 131.035C168.102 132.052 167.558 132.927 166.85 133.658C166.151 134.382 165.312 134.942 164.334 135.34C163.364 135.729 162.291 135.924 161.114 135.924ZM159.361 118.561V135.924H155.783V118.561H159.361Z" fill="black"/>
<defs>
<clipPath id="clip0_2010_25">
<rect width="88" height="77" fill="white" transform="translate(47 24.5266)"/>
</clipPath>
<clipPath id="clip1_2010_25">
<rect width="26.0282" height="23.5968" fill="white" transform="translate(77.9858 64.2686)"/>
</clipPath>
</defs>
</svg>
