<svg width="100" height="36" viewBox="0 0 100 36" fill="none" xmlns="http://www.w3.org/2000/svg">
<g clip-path="url(#clip0_301_329)">
<path d="M17.0402 2.52276C17.7385 2.52276 18.3018 1.95954 18.3018 1.26138C18.3018 0.56322 17.7385 0 17.0402 0C16.342 0 15.7787 0.56322 15.7787 1.26138C15.7787 1.95954 16.342 2.52276 17.0402 2.52276Z" fill="#33AD43"/>
<path d="M44.1439 21.6546H41.0163L45.247 0L52.2474 15.6411L59.3181 0L63.1205 21.6546H59.9929L57.9451 9.52194L52.0948 21.8541L46.2856 9.49847L44.1497 21.6546H44.1439Z" fill="white"/>
<path d="M64.7459 0.205341H68.0789L73.3893 13.6874L78.817 0L84.0629 13.6874L89.5552 0.222941H92.8882L83.881 21.6488L78.6351 7.38053L73.3247 21.6488L64.7459 0.205341Z" fill="white"/>
<path d="M96.9135 0H100V21.6546H96.9135V0Z" fill="white"/>
<path fill-rule="evenodd" clip-rule="evenodd" d="M43.5395 33.8285C44.2847 33.8285 44.7776 33.4882 44.936 33.2183V33.7581H45.6578V27.4336H44.936V29.5926C44.6661 29.3227 44.2378 29.1409 43.5864 29.1409C42.3483 29.1409 41.3156 30.1089 41.3156 31.5052C41.3156 32.9015 42.2368 33.8226 43.5454 33.8226L43.5395 33.8285ZM44.936 30.455V32.2796C44.7541 32.6375 44.3082 33.1362 43.6275 33.1362C42.7297 33.1362 42.0725 32.526 42.0725 31.4935C42.0725 30.4609 42.8178 29.8273 43.6686 29.8273C44.2554 29.8273 44.6603 30.0502 44.9302 30.455H44.936Z" fill="white"/>
<path fill-rule="evenodd" clip-rule="evenodd" d="M47.8582 27.7737C47.8582 27.5273 47.6529 27.3455 47.4064 27.3455C47.1365 27.3455 46.9311 27.5273 46.9311 27.7737C46.9311 28.0436 47.1365 28.2255 47.4064 28.2255C47.6529 28.2255 47.8582 28.0436 47.8582 27.7737ZM47.7468 29.2346H47.025V33.758H47.7468V29.2346Z" fill="white"/>
<path fill-rule="evenodd" clip-rule="evenodd" d="M51.1912 35.5651C52.3413 35.5651 53.2156 34.9374 53.2156 33.4061V29.2172H52.4704V29.622C52.265 29.3756 51.7956 29.1292 51.1208 29.1292C49.8826 29.1292 48.8675 30.0092 48.8675 31.47C48.8675 32.9309 49.7653 33.8109 51.1208 33.8109C51.8836 33.8109 52.2004 33.588 52.4938 33.2477V33.5176C52.4938 34.3507 52.042 34.8435 51.1677 34.8435C50.4459 34.8435 50.0176 34.5032 49.8416 34.1688L49.1902 34.4621C49.4367 35.1368 50.2054 35.5651 51.1912 35.5651ZM52.4997 30.4785V32.3031C52.3413 32.7314 51.8894 33.1597 51.2381 33.1362C50.2699 33.1362 49.642 32.5261 49.642 31.4935C49.642 30.4609 50.3873 29.8273 51.2381 29.8273C51.8484 29.8273 52.2943 30.1207 52.4997 30.4785Z" fill="white"/>
<path fill-rule="evenodd" clip-rule="evenodd" d="M55.4219 27.7737C55.4219 27.5273 55.2165 27.3455 54.9701 27.3455C54.7002 27.3455 54.4948 27.5273 54.4948 27.7737C54.4948 28.0436 54.7002 28.2255 54.9701 28.2255C55.2165 28.2255 55.4219 28.0436 55.4219 27.7737ZM55.3104 29.2346H54.5887V33.758H55.3104V29.2346Z" fill="white"/>
<path d="M56.2141 29.2405H57.1588V28.0906H57.8805V29.2405H59.4355V29.9386H57.8805V31.9216C57.8805 32.8193 58.127 33.1126 58.6668 33.1126C58.9837 33.1126 59.2301 32.9777 59.4766 32.7958L59.8111 33.3356C59.5411 33.6289 59.0893 33.8108 58.526 33.8108C57.6458 33.8108 57.1529 33.2241 57.1529 32.0977V29.9386H56.2082V29.2405H56.2141Z" fill="white"/>
<path fill-rule="evenodd" clip-rule="evenodd" d="M62.3342 29.1231C61.6829 29.1231 60.9612 29.3929 60.5328 29.7743L60.8907 30.314C61.3191 29.9972 61.724 29.8212 62.2403 29.8212C63.1851 29.8212 63.455 30.361 63.455 31.1706C63.232 31.1061 62.7332 31.0357 62.3988 31.0357C61.0961 31.0357 60.2394 31.4405 60.2394 32.432C60.2394 33.2651 60.8907 33.8048 61.8824 33.8048C62.6687 33.8048 63.1909 33.4645 63.4609 33.0832V33.7579H64.1826V30.9418C64.1826 29.7919 63.5547 29.1172 62.3342 29.1172V29.1231ZM63.4609 31.8218V32.2736C63.3024 32.6314 62.8095 33.1536 62.0408 33.1536C61.4306 33.1536 61.0081 32.8837 61.0081 32.4085C61.0081 31.8688 61.5714 31.6869 62.4927 31.6869C62.8506 31.6869 63.2379 31.7514 63.4609 31.8218Z" fill="white"/>
<path d="M65.4853 27.416H66.207V33.764H65.4853V27.416Z" fill="white"/>
<path fill-rule="evenodd" clip-rule="evenodd" d="M72.1512 29.1231C71.4998 29.1231 70.7781 29.3929 70.3497 29.7743L70.7077 30.314C71.136 29.9972 71.5409 29.8212 72.0573 29.8212C73.002 29.8212 73.2719 30.361 73.2719 31.1706C73.0489 31.1061 72.5502 31.0357 72.2157 31.0357C70.913 31.0357 70.0563 31.4405 70.0563 32.432C70.0563 33.2651 70.7077 33.8048 71.6993 33.8048C72.4856 33.8048 73.002 33.4645 73.2719 33.0832V33.7579H73.9937V30.9418C73.9937 29.7919 73.3658 29.1172 72.1453 29.1172L72.1512 29.1231ZM73.2778 31.8218V32.2736C73.1194 32.6314 72.6265 33.1536 71.8578 33.1536C71.2534 33.1536 70.825 32.8837 70.825 32.4085C70.825 31.8688 71.3883 31.6869 72.3096 31.6869C72.6675 31.6869 73.0548 31.7514 73.2778 31.8218Z" fill="white"/>
<path fill-rule="evenodd" clip-rule="evenodd" d="M77.3031 35.5651C78.4532 35.5651 79.3275 34.9374 79.3275 33.4061V29.2172H78.5823V29.622C78.377 29.3756 77.9075 29.1292 77.2327 29.1292C75.9946 29.1292 74.9795 30.0092 74.9795 31.47C74.9795 32.9309 75.8831 33.8109 77.2327 33.8109C77.9955 33.8109 78.3124 33.588 78.6058 33.2477V33.5176C78.6058 34.3507 78.154 34.8435 77.2797 34.8435C76.5579 34.8435 76.1296 34.5032 75.9535 34.1688L75.3022 34.4621C75.5486 35.1368 76.3173 35.5651 77.3031 35.5651ZM78.5882 30.4785V32.3031C78.4532 32.7314 78.0014 33.1597 77.3266 33.1362C76.3584 33.1362 75.7305 32.5261 75.7305 31.4935C75.7305 30.4609 76.4758 29.8273 77.3266 29.8273C77.9369 29.8273 78.3828 30.1207 78.5882 30.4785Z" fill="white"/>
<path fill-rule="evenodd" clip-rule="evenodd" d="M82.7544 33.852C83.4996 33.852 84.1275 33.5352 84.5558 32.9074L84.0805 32.4791C83.8106 32.8605 83.3177 33.1538 82.772 33.1538C81.8507 33.1538 81.1759 32.661 81.129 31.734H84.6849C84.7318 31.5287 84.7318 31.3527 84.7318 31.1943C84.7318 29.9329 83.8282 29.1467 82.637 29.1467C81.129 29.1467 80.3427 30.1793 80.3427 31.5111C80.3427 32.9309 81.3109 33.852 82.7544 33.852ZM83.969 31.0828H81.1114C81.2229 30.3377 81.7627 29.798 82.5959 29.8214C83.4057 29.8214 83.9221 30.2732 83.969 31.0828Z" fill="white"/>
<path d="M85.747 29.2406H86.4687V29.8273C86.7621 29.3755 87.3724 29.1526 88.0237 29.1526C89.1973 29.1526 89.8486 29.7627 89.8486 31.2001V33.764H89.1269V31.2881C89.1269 30.2966 88.6985 29.8449 87.8007 29.8449C87.2374 29.8449 86.721 30.2028 86.4746 30.766V33.7581H85.7528V29.2347L85.747 29.2406Z" fill="white"/>
<path d="M95.1121 32.8194C94.7776 33.4706 93.962 33.8344 93.2461 33.8344C91.8026 33.8344 90.8403 32.9133 90.8403 31.4935C90.8403 30.1676 91.785 29.1292 93.205 29.1292C94.0148 29.1292 94.7365 29.487 95.0299 30.0502L94.4666 30.4316C94.1497 30.0033 93.7683 29.8214 93.205 29.8214C92.2838 29.8214 91.5855 30.5196 91.5855 31.4876C91.5855 32.4557 92.2603 33.1538 93.2989 33.1538C93.8387 33.1538 94.2906 32.8839 94.5605 32.4557L95.1238 32.8135L95.1121 32.8194Z" fill="white"/>
<path d="M96.2622 34.8433C96.3267 34.8668 96.3737 34.8902 96.4441 34.8902C96.7785 34.8902 97.0074 34.6673 97.3243 33.9457L97.4592 33.6054L95.2764 29.2639H96.1331L97.823 32.6843L99.1081 29.2639H99.8944L98.181 33.7227C97.5707 35.254 97.1013 35.6119 96.4675 35.6119C96.2856 35.6119 96.1096 35.5649 95.9746 35.5004L96.268 34.8492L96.2622 34.8433Z" fill="white"/>
<path d="M28.0483 21.6313H32.9774L34.104 19.7421H26.7398L23.5184 28.7009L21.4705 25.0106L17.9791 31.382V4.11865H16.0897V35.3363H17.9791L21.4705 28.6715L23.6299 33.1949L24.1462 31.822L24.5981 30.6545" fill="white"/>
<path d="M6.05563 17.8237H1.10316L0 19.7128H7.36416L10.5856 10.7306L12.61 14.4444L16.1014 8.07293V35.3304H18.0143V4.11865H16.1014L12.6335 10.7834L10.4741 6.26006L9.95775 7.63291H9.93428L9.50593 8.78282V8.80629" fill="white"/>
</g>
<defs>
<clipPath id="clip0_301_329">
<rect width="100" height="35.6061" fill="white"/>
</clipPath>
</defs>
</svg>
