<svg width="35" height="35" viewBox="0 0 35 35" fill="none" xmlns="http://www.w3.org/2000/svg">
<path fill-rule="evenodd" clip-rule="evenodd" d="M0 17.5C0 27.165 7.83502 35 17.5 35C27.165 35 35 27.165 35 17.5C35 7.83502 27.165 0 17.5 0C7.83502 0 0 7.83502 0 17.5ZM13.3194 24.5486L13.6171 20.0877L13.6169 20.0876L21.7317 12.7645C22.0879 12.4485 21.654 12.2943 21.1812 12.581L11.1664 18.8993L6.84052 17.5491C5.90633 17.263 5.89962 16.6211 7.05026 16.1596L23.9071 9.65964C24.677 9.31011 25.4201 9.84456 25.1262 11.0229L22.2555 24.5509C22.055 25.5122 21.4742 25.7421 20.6694 25.298L16.2964 22.0672L14.1944 24.1111C14.1878 24.1175 14.1812 24.124 14.1746 24.1304C13.9395 24.3592 13.745 24.5486 13.3194 24.5486Z" fill="#8D9794"/>
</svg>
